<svg width="88" height="30" viewBox="0 0 88 30" fill="none" xmlns="http://www.w3.org/2000/svg">
<path d="M0.76 29V0.999998H5.04L17.28 21.44H15.04L27.08 0.999998H31.36L31.4 29H26.48L26.44 8.72H27.48L17.24 25.8H14.92L4.52 8.72H5.72V29H0.76ZM43.6031 22.4L43.3231 16.24L58.0031 0.999998H63.8431L51.6431 13.96L48.7631 17.12L43.6031 22.4ZM38.9631 29V0.999998H44.1631V29H38.9631ZM58.4831 29L47.7631 16.24L51.2031 12.44L64.5631 29H58.4831ZM76.1978 29.4C74.0111 29.4 71.9178 29.0933 69.9178 28.48C67.9178 27.84 66.3311 27.0267 65.1578 26.04L66.9578 22C68.0778 22.88 69.4645 23.6133 71.1178 24.2C72.7711 24.7867 74.4645 25.08 76.1978 25.08C77.6645 25.08 78.8511 24.92 79.7578 24.6C80.6645 24.28 81.3311 23.8533 81.7578 23.32C82.1845 22.76 82.3978 22.1333 82.3978 21.44C82.3978 20.5867 82.0911 19.9067 81.4778 19.4C80.8645 18.8667 80.0645 18.4533 79.0778 18.16C78.1178 17.84 77.0378 17.5467 75.8378 17.28C74.6645 17.0133 73.4778 16.7067 72.2778 16.36C71.1045 15.9867 70.0245 15.52 69.0378 14.96C68.0778 14.3733 67.2911 13.6 66.6778 12.64C66.0645 11.68 65.7578 10.4533 65.7578 8.96C65.7578 7.44 66.1578 6.05333 66.9578 4.8C67.7845 3.52 69.0245 2.50666 70.6778 1.76C72.3578 0.986665 74.4778 0.599998 77.0378 0.599998C78.7178 0.599998 80.3845 0.813332 82.0378 1.24C83.6911 1.66667 85.1311 2.28 86.3578 3.08L84.7178 7.12C83.4645 6.37333 82.1711 5.82667 80.8378 5.48C79.5045 5.10667 78.2245 4.92 76.9978 4.92C75.5578 4.92 74.3845 5.09333 73.4778 5.44C72.5978 5.78667 71.9445 6.24 71.5178 6.8C71.1178 7.36 70.9178 8 70.9178 8.72C70.9178 9.57333 71.2111 10.2667 71.7978 10.8C72.4111 11.3067 73.1978 11.7067 74.1578 12C75.1445 12.2933 76.2378 12.5867 77.4378 12.88C78.6378 13.1467 79.8245 13.4533 80.9978 13.8C82.1978 14.1467 83.2778 14.6 84.2378 15.16C85.2245 15.72 86.0111 16.48 86.5978 17.44C87.2111 18.4 87.5178 19.6133 87.5178 21.08C87.5178 22.5733 87.1045 23.96 86.2778 25.24C85.4778 26.4933 84.2378 27.5067 82.5578 28.28C80.8778 29.0267 78.7578 29.4 76.1978 29.4Z" fill="white"/>
</svg>
